<svg width="15" height="15" viewBox="0 0 15 15" fill="none" xmlns="http://www.w3.org/2000/svg">
<path d="M14.5002 3.27637L12.3326 1.10886C12.071 0.847205 11.7231 0.703125 11.3531 0.703125C10.9831 0.703125 10.6353 0.847205 10.3736 1.10885L1.30028 10.1821C1.21416 10.2682 1.15865 10.3802 1.14228 10.5009L0.617854 14.3644C0.594478 14.5367 0.652917 14.71 0.77588 14.833C0.880987 14.9381 1.02289 14.9961 1.16953 14.9961C1.1944 14.9961 1.21944 14.9944 1.24445 14.991L5.108 14.4666C5.2287 14.4502 5.3407 14.3947 5.42683 14.3086L14.5002 5.23539C14.7618 4.97376 14.9059 4.62588 14.9059 4.25589C14.9059 3.88587 14.7618 3.538 14.5002 3.27637ZM4.7722 13.3884L1.81964 13.7892L2.22041 10.8367L8.65003 4.40715L11.2018 6.95892L4.7722 13.3884ZM13.7128 4.448L11.9892 6.17154L9.43741 3.61977L11.161 1.89624C11.2302 1.82699 11.3111 1.81664 11.3531 1.81664C11.3951 1.81664 11.476 1.82699 11.5453 1.89624L13.7128 4.06375C13.782 4.13299 13.7924 4.21384 13.7924 4.25587C13.7924 4.29789 13.782 4.37874 13.7128 4.448Z" fill="#588157"/>
</svg>
