<svg width="24" height="19" viewBox="0 0 24 19" fill="none" xmlns="http://www.w3.org/2000/svg">
<path d="M10 9.27908L12.2791 7L14.5582 9.27908" stroke="#264425" stroke-width="2" stroke-miterlimit="10" stroke-linecap="round"/>
<path d="M15.1303 14.4256C15.1303 14.4256 18.919 14.4256 19.2773 14.4256C21.2669 14.4256 22.8791 12.8134 22.8791 10.8242C22.8791 8.83501 21.2669 7.22233 19.2773 7.22233C19.2682 7.22233 19.26 7.2237 19.2508 7.2237C19.2786 6.99853 19.2978 6.77062 19.2978 6.53815C19.2978 3.47963 16.8186 1 13.7596 1C11.3762 1 9.35099 2.50829 8.56972 4.61963C8.07425 4.12325 7.38871 3.81557 6.63205 3.81557C5.1192 3.81557 3.89306 5.04171 3.89306 6.55411C3.89306 6.59285 3.89762 6.63023 3.89898 6.66852C2.22842 7.13026 1 8.65678 1 10.4741C1 12.6566 2.76902 14.4256 4.95192 14.4256C5.32888 14.4256 8.74886 14.4256 8.74886 14.4256" stroke="#264425" stroke-width="2" stroke-miterlimit="10" stroke-linecap="round" stroke-linejoin="round"/>
<path d="M12 17.9645V9" stroke="#264425" stroke-width="2" stroke-miterlimit="10" stroke-linecap="round"/>
</svg>
