<svg width="381" height="55" viewBox="0 0 381 55" fill="none" xmlns="http://www.w3.org/2000/svg">
<rect x="47.7562" y="0.567383" width="285.769" height="53.9293" rx="26.9647" fill="#264425"/>
<path d="M151.102 24.5674L152.322 21.9474C150.922 21.0274 148.962 20.4274 147.002 20.4274C143.762 20.4274 141.582 22.0274 141.582 24.5674C141.582 29.5274 149.042 27.9874 149.042 30.6274C149.042 31.4874 148.262 31.9674 146.962 31.9674C145.482 31.9674 143.442 31.1474 142.002 29.8674L140.742 32.4474C142.322 33.7874 144.622 34.6674 146.922 34.6674C150.022 34.6674 152.402 33.1874 152.402 30.4474C152.422 25.4074 144.962 26.8474 144.962 24.2674C144.962 23.5074 145.682 23.1274 146.742 23.1274C147.862 23.1274 149.622 23.6874 151.102 24.5674ZM163.816 34.5674L163.796 27.5474C163.776 25.1274 162.116 23.6874 159.236 23.6874C157.356 23.6874 155.976 24.1274 154.376 24.9274L155.336 27.0474C156.456 26.4274 157.576 26.1074 158.536 26.1074C160.016 26.1074 160.776 26.7674 160.776 27.9074V28.1074H157.816C155.176 28.1274 153.716 29.3274 153.716 31.3474C153.716 33.3074 155.116 34.7074 157.416 34.7074C158.916 34.7074 160.076 34.2074 160.796 33.3074V34.5674H163.816ZM158.276 32.5074C157.236 32.5074 156.596 31.9674 156.596 31.1474C156.596 30.2874 157.176 29.9274 158.356 29.9274H160.776V30.8874C160.596 31.8074 159.576 32.5074 158.276 32.5074ZM164.735 23.8274L168.815 34.5674H171.975L176.035 23.8074H172.975L170.455 31.6474L167.915 23.8074L164.735 23.8274ZM181.657 23.7074C178.377 23.7074 176.117 25.9074 176.117 29.2274C176.117 32.4874 178.297 34.6874 181.737 34.6874C183.677 34.6874 185.257 33.9874 186.337 32.7874L184.717 31.1474C183.977 31.8874 183.017 32.2874 181.997 32.2874C180.617 32.2874 179.577 31.4874 179.217 30.1274H186.937C187.197 26.2074 185.437 23.7074 181.657 23.7074ZM179.157 28.3074C179.397 26.8874 180.317 25.9674 181.677 25.9674C183.097 25.9674 184.017 26.8874 184.057 28.3074H179.157ZM196.506 19.2074C195.626 19.2074 195.006 19.8474 195.006 20.7474C195.006 21.6274 195.626 22.2874 196.506 22.2874C197.386 22.2874 198.006 21.6274 198.006 20.7474C198.006 19.8474 197.386 19.2074 196.506 19.2074ZM194.966 23.8074V34.5674H198.046V23.8074H194.966ZM207.022 31.7074C206.462 31.9674 205.982 32.1074 205.582 32.1074C204.922 32.1274 204.542 31.7674 204.542 30.8674V26.4274H207.462V24.2874H204.542V21.3274H201.482V24.2874H199.982V26.4074H201.482V31.3874C201.482 33.6074 202.942 34.7074 204.862 34.7074C205.862 34.7074 206.862 34.4274 207.662 33.9674L207.022 31.7074ZM214.059 23.7074C210.779 23.7074 208.519 25.9074 208.519 29.2274C208.519 32.4874 210.699 34.6874 214.139 34.6874C216.079 34.6874 217.659 33.9874 218.739 32.7874L217.119 31.1474C216.379 31.8874 215.419 32.2874 214.399 32.2874C213.019 32.2874 211.979 31.4874 211.619 30.1274H219.339C219.599 26.2074 217.839 23.7074 214.059 23.7074ZM211.559 28.3074C211.799 26.8874 212.719 25.9674 214.079 25.9674C215.499 25.9674 216.419 26.8874 216.459 28.3074H211.559ZM235.613 23.6874C233.793 23.7074 232.433 24.5074 231.733 26.1674C231.213 24.6074 229.913 23.6874 228.093 23.6874C226.473 23.7074 225.213 24.3474 224.453 25.6674V23.8074H221.373V34.5674H224.453V29.2474C224.453 27.6874 225.353 26.5274 226.853 26.5074C228.113 26.5074 228.913 27.3274 228.913 28.7074V34.5674H231.973V29.2474C231.973 27.6874 232.873 26.5274 234.353 26.5074C235.633 26.5074 236.433 27.3274 236.433 28.7074V34.5674H239.493V27.8074C239.493 25.2874 237.993 23.6874 235.613 23.6874Z" fill="white"/>
</svg>
