<svg width="36" height="36" viewBox="0 0 36 36" fill="none" xmlns="http://www.w3.org/2000/svg">
<path d="M27.3893 14.6362L27.3894 14.6362L27.3954 14.63C27.7749 14.2371 27.9849 13.7108 27.9802 13.1646C27.9754 12.6183 27.7563 12.0958 27.37 11.7095C26.9838 11.3233 26.4612 11.1042 25.915 11.0994C25.3688 11.0947 24.8425 11.3047 24.4496 11.6842L24.4495 11.6841L24.4434 11.6902L14.833 21.3006L11.556 18.0236L11.556 18.0235L11.5498 18.0175C11.1569 17.638 10.6306 17.428 10.0844 17.4328C9.53813 17.4375 9.0156 17.6566 8.62933 18.0429C8.24307 18.4291 8.02396 18.9517 8.01922 19.4979C8.01447 20.0441 8.22446 20.5704 8.60396 20.9633L8.6039 20.9634L8.61005 20.9695L13.36 25.7195L13.3601 25.7196C13.7508 26.1101 14.2806 26.3295 14.833 26.3295C15.3854 26.3295 15.9152 26.1101 16.3059 25.7196L16.306 25.7195L27.3893 14.6362ZM8.60129 3.84752C11.3832 1.9887 14.6539 0.996552 17.9997 0.996552C22.4863 0.996552 26.7891 2.77884 29.9616 5.95133C33.1341 9.12382 34.9164 13.4266 34.9164 17.9132C34.9164 21.259 33.9242 24.5297 32.0654 27.3116C30.2066 30.0935 27.5645 32.2618 24.4734 33.5422C21.3823 34.8226 17.9809 35.1576 14.6994 34.5048C11.4179 33.8521 8.40363 32.2409 6.03779 29.8751C3.67195 27.5093 2.0608 24.495 1.40806 21.2135C0.755331 17.932 1.09034 14.5306 2.37072 11.4395C3.6511 8.34837 5.81935 5.70635 8.60129 3.84752Z" stroke="#ACB9AC"/>
</svg>
