<svg width="35" height="36" viewBox="0 0 35 36" fill="none" xmlns="http://www.w3.org/2000/svg">
<path d="M26.8503 15.1127L26.8503 15.1128L26.8563 15.1065C27.2358 14.7136 27.4458 14.1873 27.4411 13.6411C27.4363 13.0949 27.2172 12.5723 26.831 12.1861C26.4447 11.7998 25.9222 11.5807 25.3759 11.576C24.8297 11.5712 24.3034 11.7812 23.9105 12.1607L23.9105 12.1606L23.9043 12.1668L14.294 21.7771L11.0169 18.5001L11.017 18.5001L11.0107 18.494C10.6178 18.1145 10.0915 17.9045 9.54531 17.9093C8.99906 17.914 8.47654 18.1331 8.09027 18.5194C7.704 18.9057 7.4849 19.4282 7.48015 19.9744C7.47541 20.5207 7.6854 21.0469 8.06489 21.4399L8.06484 21.4399L8.07098 21.4461L12.821 26.1961L12.821 26.1961C13.2117 26.5867 13.7415 26.8061 14.294 26.8061C14.8464 26.8061 15.3762 26.5867 15.7669 26.1961L15.7669 26.1961L26.8503 15.1127ZM8.06222 4.32406C10.8442 2.46523 14.1148 1.47308 17.4606 1.47308C21.9472 1.47308 26.25 3.25537 29.4225 6.42786C32.595 9.60035 34.3773 13.9032 34.3773 18.3898C34.3773 21.7356 33.3851 25.0062 31.5263 27.7881C29.6675 30.5701 27.0255 32.7383 23.9343 34.0187C20.8432 35.2991 17.4419 35.6341 14.1603 34.9814C10.8788 34.3286 7.86457 32.7175 5.49873 30.3516C3.13289 27.9858 1.52174 24.9715 0.869002 21.69C0.216269 18.4085 0.551275 15.0071 1.83166 11.916C3.11204 8.82491 5.28029 6.18288 8.06222 4.32406Z" stroke="#264425"/>
</svg>
