<svg width="39" height="39" viewBox="0 0 39 39" fill="none" xmlns="http://www.w3.org/2000/svg">
<path d="M19.9057 2.5459C16.461 2.5459 13.0937 3.56737 10.2295 5.48114C7.36535 7.3949 5.13301 10.115 3.81479 13.2975C2.49656 16.48 2.15165 19.9819 2.82368 23.3604C3.4957 26.7389 5.15448 29.8422 7.59025 32.278C10.026 34.7138 13.1294 36.3725 16.5079 37.0446C19.8864 37.7166 23.3883 37.3717 26.5708 36.0535C29.7532 34.7352 32.4734 32.5029 34.3871 29.6387C36.3009 26.7746 37.3224 23.4073 37.3224 19.9626C37.3224 15.3434 35.4874 10.9134 32.2211 7.64712C28.9549 4.38086 24.5249 2.5459 19.9057 2.5459ZM28.9418 16.332L17.8584 27.4153C17.5615 27.7121 17.1589 27.8789 16.739 27.8789C16.3192 27.8789 15.9165 27.7121 15.6196 27.4153L10.8696 22.6653C10.5812 22.3667 10.4216 21.9667 10.4252 21.5516C10.4288 21.1365 10.5953 20.7393 10.8889 20.4458C11.1825 20.1522 11.5796 19.9857 11.9947 19.9821C12.4099 19.9785 12.8098 20.1381 13.1084 20.4265L16.739 24.0571L26.7029 14.0931C27.0016 13.8047 27.4015 13.6451 27.8167 13.6487C28.2318 13.6524 28.6289 13.8189 28.9225 14.1124C29.216 14.406 29.3826 14.8031 29.3862 15.2183C29.3898 15.6334 29.2302 16.0334 28.9418 16.332Z" fill="#176415"/>
</svg>
