<svg width="36" height="36" viewBox="0 0 36 36" fill="none" xmlns="http://www.w3.org/2000/svg">
<path d="M17.9057 0.891602C14.461 0.891602 11.0937 1.91307 8.22951 3.82684C5.36536 5.74061 3.13301 8.46072 1.81479 11.6432C0.49656 14.8257 0.151652 18.3276 0.823678 21.7061C1.4957 25.0846 3.15448 28.188 5.59025 30.6237C8.02602 33.0595 11.1294 34.7183 14.5079 35.3903C17.8864 36.0623 21.3883 35.7174 24.5708 34.3992C27.7533 33.081 30.4734 30.8486 32.3871 27.9845C34.3009 25.1203 35.3224 21.753 35.3224 18.3083C35.3224 13.6891 33.4874 9.25909 30.2212 5.99283C26.9549 2.72657 22.5249 0.891602 17.9057 0.891602ZM25.3585 23.5222C25.5097 23.6683 25.6303 23.843 25.7133 24.0361C25.7963 24.2293 25.84 24.4371 25.8418 24.6473C25.8436 24.8576 25.8035 25.066 25.7239 25.2606C25.6443 25.4552 25.5267 25.632 25.3781 25.7807C25.2294 25.9293 25.0526 26.0469 24.8581 26.1265C24.6635 26.2061 24.455 26.2462 24.2447 26.2444C24.0345 26.2425 23.8267 26.1988 23.6336 26.1159C23.4404 26.0329 23.2657 25.9123 23.1196 25.761L17.9057 20.5471L12.6918 25.761C12.5457 25.9123 12.371 26.0329 12.1778 26.1159C11.9847 26.1988 11.7769 26.2425 11.5667 26.2444C11.3564 26.2462 11.1479 26.2061 10.9534 26.1265C10.7588 26.0469 10.582 25.9293 10.4333 25.7807C10.2847 25.632 10.1671 25.4552 10.0875 25.2606C10.0079 25.066 9.96781 24.8576 9.96963 24.6473C9.97146 24.4371 10.0151 24.2293 10.0981 24.0361C10.1811 23.843 10.3017 23.6683 10.4529 23.5222L15.6669 18.3083L10.4529 13.0944C10.3017 12.9483 10.1811 12.7736 10.0981 12.5804C10.0151 12.3872 9.97146 12.1795 9.96963 11.9692C9.96781 11.759 10.0079 11.5505 10.0875 11.3559C10.1671 11.1613 10.2847 10.9846 10.4333 10.8359C10.582 10.6872 10.7588 10.5697 10.9534 10.4901C11.1479 10.4104 11.3564 10.3704 11.5667 10.3722C11.7769 10.374 11.9847 10.4177 12.1778 10.5007C12.371 10.5837 12.5457 10.7043 12.6918 10.8555L17.9057 16.0694L23.1196 10.8555C23.2657 10.7043 23.4404 10.5837 23.6336 10.5007C23.8267 10.4177 24.0345 10.374 24.2447 10.3722C24.455 10.3704 24.6635 10.4104 24.8581 10.4901C25.0526 10.5697 25.2294 10.6872 25.3781 10.8359C25.5267 10.9846 25.6443 11.1613 25.7239 11.3559C25.8035 11.5505 25.8436 11.759 25.8418 11.9692C25.84 12.1795 25.7963 12.3872 25.7133 12.5804C25.6303 12.7736 25.5097 12.9483 25.3585 13.0944L20.1445 18.3083L25.3585 23.5222Z" fill="#888888"/>
</svg>
