<svg width="36" height="36" viewBox="0 0 36 36" fill="none" xmlns="http://www.w3.org/2000/svg">
<path d="M17.9997 0.496536C14.555 0.496536 11.1877 1.51801 8.3235 3.43177C5.45934 5.34554 3.22701 8.06565 1.90878 11.2481C0.590554 14.4306 0.245646 17.9325 0.917672 21.311C1.5897 24.6895 3.24848 27.7929 5.68424 30.2286C8.12 32.6644 11.2234 34.3232 14.6019 34.9952C17.9804 35.6672 21.4823 35.3223 24.6648 34.0041C27.8472 32.6859 30.5673 30.4535 32.4811 27.5894C34.3949 24.7252 35.4164 21.3579 35.4164 17.9132C35.4164 13.294 33.5814 8.86402 30.3151 5.59776C27.0489 2.3315 22.6189 0.496536 17.9997 0.496536ZM27.0358 14.2826L15.9524 25.366C15.6555 25.6628 15.2529 25.8295 14.833 25.8295C14.4132 25.8295 14.0105 25.6628 13.7136 25.366L8.9636 20.616C8.67518 20.3173 8.51559 19.9174 8.5192 19.5022C8.52281 19.0871 8.68932 18.69 8.98289 18.3964C9.27645 18.1028 9.67357 17.9363 10.0887 17.9327C10.5039 17.9291 10.9038 18.0887 11.2024 18.3771L14.833 22.0077L24.7969 12.0438C25.0956 11.7554 25.4955 11.5958 25.9107 11.5994C26.3258 11.603 26.7229 11.7695 27.0165 12.0631C27.31 12.3566 27.4766 12.7538 27.4802 13.1689C27.4838 13.584 27.3242 13.984 27.0358 14.2826Z" fill="#519E8A"/>
</svg>
